<?xml version="1.0" standalone="no"?><!-- Generator: Gravit.io --><svg xmlns="http://www.w3.org/2000/svg" xmlns:xlink="http://www.w3.org/1999/xlink" style="isolation:isolate" viewBox="1 0 256 224.878" width="256" height="224.878"><g id="Logo"><g id="ESLint"><polygon points="216.91,61.685,216.91,163.194,129,213.949,41.09,163.194,41.09,61.685,129,10.93" fill="rgb(255,255,255)"/><path d=" M 255.417 107.417 L 197.323 6.35 C 195.213 2.696 191.315 0 187.095 0 L 70.906 0 C 66.686 0 62.786 2.696 60.676 6.35 L 2.583 107.194 C 0.472 110.849 0.472 115.462 2.583 119.117 L 60.676 219.356 C 62.786 223.01 66.686 224.878 70.906 224.878 L 187.094 224.878 C 191.314 224.878 195.213 223.066 197.322 219.411 L 237.065 150.724 Q 241.097 155.483 241.151 153.652 Q 239.449 148.144 241.784 142.568 L 255.416 119.009 C 257.528 115.356 257.528 111.071 255.417 107.417 L 255.417 107.417 Z  M 207.312 156.016 C 207.312 157.502 206.418 158.877 205.13 159.621 L 142.23 195.911 Q 137.041 191.904 134 193 Q 137.205 199.753 134 201 L 131.131 202.314 C 129.844 203.057 128.232 203.057 126.945 202.314 L 52.889 159.621 C 51.602 158.877 50.701 157.503 50.701 156.016 L 50.701 70.628 C 50.701 69.141 51.589 67.768 52.877 67.024 L 126.872 24.33 C 128.159 23.586 129.77 23.586 131.057 24.33 L 205.118 67.024 C 206.406 67.768 207.312 69.141 207.312 70.628 L 207.312 108.873 Q 207.003 113.69 200 112 Q 199.47 111.872 207.312 115.309 L 207.312 156.016 L 207.312 156.016 Z " fill="rgb(75,50,195)"/><path d=" M 78.965 80.568 L 127.535 52.527 C 128.75 51.825 130.249 51.825 131.464 52.527 L 180.035 80.568 C 181.25 81.27 182 82.567 182 83.971 L 182 140.055 C 182 141.458 181.25 142.755 180.035 143.458 L 131.464 171.5 C 130.249 172.202 128.75 172.202 127.535 171.5 L 78.965 143.458 C 77.749 142.756 77 141.459 77 140.055 L 77 83.971 C 77.001 82.567 77.75 81.27 78.965 80.568 Z " fill="rgb(128,128,242)"/></g><g id="Group"><path d=" M 128 167.439 C 128 152.23 133.987 137.668 144.827 126.827 C 155.668 115.987 170.23 110 185.439 110 C 200.648 110 215.211 115.987 226.051 126.827 C 236.892 137.668 242.878 152.23 242.878 167.439 C 242.878 182.648 236.892 197.211 226.051 208.051 C 215.211 218.892 200.648 224.878 185.439 224.878 C 170.23 224.878 155.668 218.892 144.827 208.051 C 133.987 197.211 128 182.648 128 167.439 Z " fill="rgb(75,50,195)"/><path d=" M 144.827 167.439 C 144.827 145.025 163.025 126.827 185.439 126.827 C 207.854 126.827 226.051 145.025 226.051 167.439 C 226.051 189.854 207.854 208.051 185.439 208.051 C 163.025 208.051 144.827 189.854 144.827 167.439 Z " fill="rgb(255,255,255)"/><path d=" M 170.68 184.524 L 157.722 171.648 L 157.722 171.648 Q 157.309 171.236 156.876 170.782 L 156.876 170.782 L 156.876 170.782 Q 156.443 170.328 156.071 169.791 L 156.071 169.791 L 156.071 169.791 Q 155.7 169.255 155.473 168.677 L 155.473 168.677 L 155.473 168.677 Q 155.246 168.099 155.246 167.439 L 155.246 167.439 L 155.246 167.439 Q 155.246 166.242 155.989 165.273 L 155.989 165.273 L 155.989 165.273 Q 156.731 164.303 157.804 163.23 L 157.804 163.23 L 170.762 150.354 L 170.762 150.354 Q 171.712 149.405 172.723 148.642 L 172.723 148.642 L 172.723 148.642 Q 173.734 147.878 174.972 147.878 L 174.972 147.878 L 174.972 147.878 Q 175.797 147.878 176.664 148.332 L 176.664 148.332 L 176.664 148.332 Q 177.53 148.786 178.521 149.777 L 178.521 149.777 L 178.521 149.777 Q 179.47 150.726 179.862 151.531 L 179.862 151.531 L 179.862 151.531 Q 180.254 152.335 180.254 153.161 L 180.254 153.161 L 180.254 153.161 Q 180.254 154.399 179.532 155.451 L 179.532 155.451 L 179.532 155.451 Q 178.81 156.503 177.86 157.452 L 177.86 157.452 L 167.709 167.522 L 177.778 177.426 L 177.778 177.426 Q 178.768 178.416 179.511 179.427 L 179.511 179.427 L 179.511 179.427 Q 180.254 180.438 180.254 181.635 L 180.254 181.635 L 180.254 181.635 Q 180.254 182.461 179.841 183.327 L 179.841 183.327 L 179.841 183.327 Q 179.429 184.194 178.356 185.267 L 178.356 185.267 L 178.356 185.267 Q 177.406 186.216 176.602 186.608 L 176.602 186.608 L 176.602 186.608 Q 175.797 187 174.972 187 L 174.972 187 L 174.972 187 Q 173.775 187 172.723 186.257 L 172.723 186.257 L 172.723 186.257 Q 171.67 185.514 170.68 184.524 L 170.68 184.524 Z  M 213.157 171.648 L 200.199 184.524 L 200.199 184.524 Q 199.208 185.514 198.156 186.257 L 198.156 186.257 L 198.156 186.257 Q 197.104 187 195.907 187 L 195.907 187 L 195.907 187 Q 195.081 187 194.277 186.608 L 194.277 186.608 L 194.277 186.608 Q 193.472 186.216 192.523 185.267 L 192.523 185.267 L 192.523 185.267 Q 191.45 184.194 191.037 183.327 L 191.037 183.327 L 191.037 183.327 Q 190.625 182.461 190.625 181.635 L 190.625 181.635 L 190.625 181.635 Q 190.625 180.438 191.367 179.427 L 191.367 179.427 L 191.367 179.427 Q 192.11 178.416 193.101 177.426 L 193.101 177.426 L 203.17 167.522 L 193.018 157.452 L 193.018 157.452 Q 192.069 156.503 191.347 155.451 L 191.347 155.451 L 191.347 155.451 Q 190.625 154.399 190.625 153.161 L 190.625 153.161 L 190.625 153.161 Q 190.625 152.335 191.017 151.531 L 191.017 151.531 L 191.017 151.531 Q 191.409 150.726 192.358 149.777 L 192.358 149.777 L 192.358 149.777 Q 193.348 148.786 194.215 148.332 L 194.215 148.332 L 194.215 148.332 Q 195.081 147.878 195.907 147.878 L 195.907 147.878 L 195.907 147.878 Q 197.145 147.878 198.156 148.642 L 198.156 148.642 L 198.156 148.642 Q 199.167 149.405 200.116 150.354 L 200.116 150.354 L 213.074 163.23 L 213.074 163.23 Q 214.147 164.303 214.89 165.273 L 214.89 165.273 L 214.89 165.273 Q 215.633 166.242 215.633 167.439 L 215.633 167.439 L 215.633 167.439 Q 215.633 168.099 215.406 168.677 L 215.406 168.677 L 215.406 168.677 Q 215.179 169.255 214.807 169.791 L 214.807 169.791 L 214.807 169.791 Q 214.436 170.328 214.003 170.782 L 214.003 170.782 L 214.003 170.782 Q 213.569 171.236 213.157 171.648 L 213.157 171.648 Z " fill-rule="evenodd" fill="rgb(70,70,70)"/></g></g></svg>